<mxfile host="Electron" modified="2023-05-03T09:21:59.750Z" agent="Mozilla/5.0 (Windows NT 10.0; Win64; x64) AppleWebKit/537.36 (KHTML, like Gecko) draw.io/21.2.1 Chrome/112.0.5615.87 Electron/24.1.2 Safari/537.36" etag="BUHJOQ6o08K36j-Fs0ZB" version="21.2.1" type="device">
  <diagram name="Страница 1" id="jExPNK9coFjyAaGyHoYG">
    <mxGraphModel dx="1076" dy="334" grid="1" gridSize="10" guides="1" tooltips="1" connect="1" arrows="1" fold="1" page="1" pageScale="1" pageWidth="827" pageHeight="1169" math="0" shadow="0">
      <root>
        <mxCell id="0" />
        <mxCell id="1" parent="0" />
        <mxCell id="1t0jgZ_QZ0gR7xcOCou2-1" value="" style="html=1;points=[];perimeter=orthogonalPerimeter;outlineConnect=0;targetShapes=umlLifeline;portConstraint=eastwest;newEdgeStyle={&quot;edgeStyle&quot;:&quot;elbowEdgeStyle&quot;,&quot;elbow&quot;:&quot;vertical&quot;,&quot;curved&quot;:0,&quot;rounded&quot;:0};" parent="1" vertex="1">
          <mxGeometry x="60" y="300" width="10" height="330" as="geometry" />
        </mxCell>
        <mxCell id="1t0jgZ_QZ0gR7xcOCou2-2" value="Співробітник відділу постачання" style="shape=umlActor;verticalLabelPosition=bottom;verticalAlign=top;html=1;" parent="1" vertex="1">
          <mxGeometry x="50" y="190" width="30" height="60" as="geometry" />
        </mxCell>
        <mxCell id="1t0jgZ_QZ0gR7xcOCou2-3" value="" style="html=1;points=[];perimeter=orthogonalPerimeter;outlineConnect=0;targetShapes=umlLifeline;portConstraint=eastwest;newEdgeStyle={&quot;edgeStyle&quot;:&quot;elbowEdgeStyle&quot;,&quot;elbow&quot;:&quot;vertical&quot;,&quot;curved&quot;:0,&quot;rounded&quot;:0};" parent="1" vertex="1">
          <mxGeometry x="240" y="350" width="10" height="280" as="geometry" />
        </mxCell>
        <mxCell id="1t0jgZ_QZ0gR7xcOCou2-4" value="" style="html=1;points=[];perimeter=orthogonalPerimeter;outlineConnect=0;targetShapes=umlLifeline;portConstraint=eastwest;newEdgeStyle={&quot;edgeStyle&quot;:&quot;elbowEdgeStyle&quot;,&quot;elbow&quot;:&quot;vertical&quot;,&quot;curved&quot;:0,&quot;rounded&quot;:0};" parent="1" vertex="1">
          <mxGeometry x="430" y="400" width="10" height="230" as="geometry" />
        </mxCell>
        <mxCell id="1t0jgZ_QZ0gR7xcOCou2-5" value="" style="html=1;points=[];perimeter=orthogonalPerimeter;outlineConnect=0;targetShapes=umlLifeline;portConstraint=eastwest;newEdgeStyle={&quot;edgeStyle&quot;:&quot;elbowEdgeStyle&quot;,&quot;elbow&quot;:&quot;vertical&quot;,&quot;curved&quot;:0,&quot;rounded&quot;:0};" parent="1" vertex="1">
          <mxGeometry x="620" y="520" width="10" height="110" as="geometry" />
        </mxCell>
        <mxCell id="1t0jgZ_QZ0gR7xcOCou2-6" value="" style="html=1;points=[];perimeter=orthogonalPerimeter;outlineConnect=0;targetShapes=umlLifeline;portConstraint=eastwest;newEdgeStyle={&quot;edgeStyle&quot;:&quot;elbowEdgeStyle&quot;,&quot;elbow&quot;:&quot;vertical&quot;,&quot;curved&quot;:0,&quot;rounded&quot;:0};" parent="1" vertex="1">
          <mxGeometry x="760" y="610" width="10" height="20" as="geometry" />
        </mxCell>
        <mxCell id="1t0jgZ_QZ0gR7xcOCou2-7" value="Форма створення договору" style="html=1;whiteSpace=wrap;" parent="1" vertex="1">
          <mxGeometry x="190" y="160" width="110" height="50" as="geometry" />
        </mxCell>
        <mxCell id="1t0jgZ_QZ0gR7xcOCou2-9" value="" style="endArrow=none;dashed=1;html=1;rounded=0;exitX=0.5;exitY=1;exitDx=0;exitDy=0;" parent="1" source="1t0jgZ_QZ0gR7xcOCou2-7" target="1t0jgZ_QZ0gR7xcOCou2-3" edge="1">
          <mxGeometry width="50" height="50" relative="1" as="geometry">
            <mxPoint x="240" y="310" as="sourcePoint" />
            <mxPoint x="290" y="260" as="targetPoint" />
          </mxGeometry>
        </mxCell>
        <mxCell id="1t0jgZ_QZ0gR7xcOCou2-11" value="Таблиця &quot;Поставники&quot; бази данних" style="html=1;whiteSpace=wrap;" parent="1" vertex="1">
          <mxGeometry x="380" y="160" width="110" height="50" as="geometry" />
        </mxCell>
        <mxCell id="1t0jgZ_QZ0gR7xcOCou2-12" value="" style="endArrow=none;dashed=1;html=1;rounded=0;exitX=0.5;exitY=1;exitDx=0;exitDy=0;" parent="1" source="1t0jgZ_QZ0gR7xcOCou2-11" target="1t0jgZ_QZ0gR7xcOCou2-4" edge="1">
          <mxGeometry width="50" height="50" relative="1" as="geometry">
            <mxPoint x="430" y="310" as="sourcePoint" />
            <mxPoint x="435" y="350" as="targetPoint" />
          </mxGeometry>
        </mxCell>
        <mxCell id="1t0jgZ_QZ0gR7xcOCou2-13" value="Таблиця &quot;Договори&quot; бази данних" style="html=1;whiteSpace=wrap;" parent="1" vertex="1">
          <mxGeometry x="570" y="160" width="110" height="50" as="geometry" />
        </mxCell>
        <mxCell id="1t0jgZ_QZ0gR7xcOCou2-14" value="" style="endArrow=none;dashed=1;html=1;rounded=0;exitX=0.5;exitY=1;exitDx=0;exitDy=0;" parent="1" source="1t0jgZ_QZ0gR7xcOCou2-13" target="1t0jgZ_QZ0gR7xcOCou2-5" edge="1">
          <mxGeometry width="50" height="50" relative="1" as="geometry">
            <mxPoint x="620" y="310" as="sourcePoint" />
            <mxPoint x="625" y="400" as="targetPoint" />
          </mxGeometry>
        </mxCell>
        <mxCell id="1t0jgZ_QZ0gR7xcOCou2-15" value="Список договорів" style="html=1;whiteSpace=wrap;" parent="1" vertex="1">
          <mxGeometry x="710" y="160" width="110" height="50" as="geometry" />
        </mxCell>
        <mxCell id="1t0jgZ_QZ0gR7xcOCou2-16" value="" style="endArrow=none;dashed=1;html=1;rounded=0;exitX=0.5;exitY=1;exitDx=0;exitDy=0;" parent="1" source="1t0jgZ_QZ0gR7xcOCou2-15" target="1t0jgZ_QZ0gR7xcOCou2-6" edge="1">
          <mxGeometry width="50" height="50" relative="1" as="geometry">
            <mxPoint x="760" y="310" as="sourcePoint" />
            <mxPoint x="765" y="400" as="targetPoint" />
          </mxGeometry>
        </mxCell>
        <mxCell id="1t0jgZ_QZ0gR7xcOCou2-18" value="" style="endArrow=open;endFill=1;endSize=12;html=1;rounded=0;" parent="1" source="1t0jgZ_QZ0gR7xcOCou2-1" target="1t0jgZ_QZ0gR7xcOCou2-3" edge="1">
          <mxGeometry width="160" relative="1" as="geometry">
            <mxPoint x="70" y="380" as="sourcePoint" />
            <mxPoint x="220" y="380" as="targetPoint" />
            <Array as="points">
              <mxPoint x="140" y="350" />
            </Array>
          </mxGeometry>
        </mxCell>
        <mxCell id="1t0jgZ_QZ0gR7xcOCou2-19" value="1. Відкрити форму" style="text;html=1;strokeColor=none;fillColor=none;align=center;verticalAlign=middle;whiteSpace=wrap;rounded=0;" parent="1" vertex="1">
          <mxGeometry x="70" y="320" width="140" height="30" as="geometry" />
        </mxCell>
        <mxCell id="1t0jgZ_QZ0gR7xcOCou2-20" value="" style="endArrow=open;endFill=1;endSize=12;html=1;rounded=0;" parent="1" target="1t0jgZ_QZ0gR7xcOCou2-3" edge="1">
          <mxGeometry width="160" relative="1" as="geometry">
            <mxPoint x="250" y="370" as="sourcePoint" />
            <mxPoint x="340" y="420" as="targetPoint" />
            <Array as="points">
              <mxPoint x="300" y="370" />
              <mxPoint x="300" y="390" />
              <mxPoint x="280" y="390" />
            </Array>
          </mxGeometry>
        </mxCell>
        <mxCell id="1t0jgZ_QZ0gR7xcOCou2-21" value="" style="endArrow=open;endFill=1;endSize=12;html=1;rounded=0;" parent="1" edge="1">
          <mxGeometry width="160" relative="1" as="geometry">
            <mxPoint x="70" y="480" as="sourcePoint" />
            <mxPoint x="240" y="480" as="targetPoint" />
            <Array as="points">
              <mxPoint x="140" y="480" />
            </Array>
          </mxGeometry>
        </mxCell>
        <mxCell id="1t0jgZ_QZ0gR7xcOCou2-22" value="&lt;font style=&quot;font-size: 8px;&quot;&gt;2. Відправлека заповненої інформації&lt;/font&gt;" style="text;html=1;strokeColor=none;fillColor=none;align=center;verticalAlign=middle;whiteSpace=wrap;rounded=0;" parent="1" vertex="1">
          <mxGeometry x="70" y="450" width="150" height="30" as="geometry" />
        </mxCell>
        <mxCell id="1t0jgZ_QZ0gR7xcOCou2-23" value="" style="endArrow=open;endFill=1;endSize=12;html=1;rounded=0;" parent="1" edge="1">
          <mxGeometry width="160" relative="1" as="geometry">
            <mxPoint x="440" y="430" as="sourcePoint" />
            <mxPoint x="440" y="460" as="targetPoint" />
            <Array as="points">
              <mxPoint x="490" y="430" />
              <mxPoint x="490" y="460" />
            </Array>
          </mxGeometry>
        </mxCell>
        <mxCell id="1t0jgZ_QZ0gR7xcOCou2-24" value="" style="endArrow=open;endFill=1;endSize=12;html=1;rounded=0;" parent="1" source="1t0jgZ_QZ0gR7xcOCou2-3" edge="1">
          <mxGeometry width="160" relative="1" as="geometry">
            <mxPoint x="300" y="420" as="sourcePoint" />
            <mxPoint x="430" y="420" as="targetPoint" />
          </mxGeometry>
        </mxCell>
        <mxCell id="1t0jgZ_QZ0gR7xcOCou2-26" value="&lt;font style=&quot;font-size: 9px;&quot;&gt;1.1 Згенерувати номер договору&lt;/font&gt;" style="text;html=1;strokeColor=none;fillColor=none;align=center;verticalAlign=middle;whiteSpace=wrap;rounded=0;" parent="1" vertex="1">
          <mxGeometry x="250" y="340" width="170" height="30" as="geometry" />
        </mxCell>
        <mxCell id="1t0jgZ_QZ0gR7xcOCou2-27" value="&lt;font style=&quot;font-size: 9px;&quot;&gt;1.2 Отримати список поставників&lt;/font&gt;" style="text;html=1;strokeColor=none;fillColor=none;align=center;verticalAlign=middle;whiteSpace=wrap;rounded=0;" parent="1" vertex="1">
          <mxGeometry x="250" y="400" width="170" height="20" as="geometry" />
        </mxCell>
        <mxCell id="1t0jgZ_QZ0gR7xcOCou2-28" value="" style="endArrow=open;endFill=1;endSize=12;html=1;rounded=0;" parent="1" edge="1">
          <mxGeometry width="160" relative="1" as="geometry">
            <mxPoint x="250" y="484" as="sourcePoint" />
            <mxPoint x="250" y="514" as="targetPoint" />
            <Array as="points">
              <mxPoint x="300" y="484" />
              <mxPoint x="300" y="514" />
            </Array>
          </mxGeometry>
        </mxCell>
        <mxCell id="nUIhK4x8enayX2qYagXD-1" value="" style="endArrow=open;endFill=1;endSize=12;html=1;rounded=0;" edge="1" parent="1" source="1t0jgZ_QZ0gR7xcOCou2-3" target="1t0jgZ_QZ0gR7xcOCou2-1">
          <mxGeometry width="160" relative="1" as="geometry">
            <mxPoint x="70" y="540" as="sourcePoint" />
            <mxPoint x="240" y="540" as="targetPoint" />
            <Array as="points">
              <mxPoint x="140" y="540" />
            </Array>
          </mxGeometry>
        </mxCell>
        <mxCell id="nUIhK4x8enayX2qYagXD-2" value="&lt;font style=&quot;font-size: 8px;&quot;&gt;2.2 Показати повідомлення про помилку&lt;/font&gt;" style="text;html=1;strokeColor=none;fillColor=none;align=center;verticalAlign=middle;whiteSpace=wrap;rounded=0;" vertex="1" parent="1">
          <mxGeometry x="80" y="510" width="150" height="30" as="geometry" />
        </mxCell>
        <mxCell id="nUIhK4x8enayX2qYagXD-3" value="" style="endArrow=open;endFill=1;endSize=12;html=1;rounded=0;" edge="1" parent="1">
          <mxGeometry width="160" relative="1" as="geometry">
            <mxPoint x="240" y="615" as="sourcePoint" />
            <mxPoint x="70" y="615" as="targetPoint" />
            <Array as="points">
              <mxPoint x="140" y="615" />
            </Array>
          </mxGeometry>
        </mxCell>
        <mxCell id="nUIhK4x8enayX2qYagXD-4" value="&lt;font style=&quot;font-size: 8px;&quot;&gt;2.3.2.1 Показати повідомлення про помилку&lt;/font&gt;" style="text;html=1;strokeColor=none;fillColor=none;align=center;verticalAlign=middle;whiteSpace=wrap;rounded=0;" vertex="1" parent="1">
          <mxGeometry x="80" y="585" width="150" height="30" as="geometry" />
        </mxCell>
        <mxCell id="nUIhK4x8enayX2qYagXD-6" value="" style="endArrow=open;endFill=1;endSize=12;html=1;rounded=0;" edge="1" parent="1" target="1t0jgZ_QZ0gR7xcOCou2-3">
          <mxGeometry width="160" relative="1" as="geometry">
            <mxPoint x="250" y="460" as="sourcePoint" />
            <mxPoint x="430" y="460" as="targetPoint" />
            <Array as="points">
              <mxPoint x="430" y="460" />
            </Array>
          </mxGeometry>
        </mxCell>
        <mxCell id="nUIhK4x8enayX2qYagXD-7" value="&lt;font style=&quot;font-size: 9px;&quot;&gt;1.2.2 Список пар код-назва поставника&lt;/font&gt;" style="text;html=1;strokeColor=none;fillColor=none;align=center;verticalAlign=middle;whiteSpace=wrap;rounded=0;" vertex="1" parent="1">
          <mxGeometry x="260" y="440" width="170" height="20" as="geometry" />
        </mxCell>
        <mxCell id="nUIhK4x8enayX2qYagXD-9" value="&lt;font style=&quot;font-size: 9px;&quot;&gt;1.2.1 Виконати запит на вибірку даних&lt;/font&gt;" style="text;html=1;strokeColor=none;fillColor=none;align=center;verticalAlign=middle;whiteSpace=wrap;rounded=0;" vertex="1" parent="1">
          <mxGeometry x="490" y="430" width="100" height="20" as="geometry" />
        </mxCell>
        <mxCell id="nUIhK4x8enayX2qYagXD-10" value="&lt;font style=&quot;font-size: 9px;&quot;&gt;2.1 Валідація введених даних&lt;/font&gt;" style="text;html=1;strokeColor=none;fillColor=none;align=center;verticalAlign=middle;whiteSpace=wrap;rounded=0;" vertex="1" parent="1">
          <mxGeometry x="300" y="490" width="100" height="20" as="geometry" />
        </mxCell>
        <mxCell id="nUIhK4x8enayX2qYagXD-11" value="" style="endArrow=open;endFill=1;endSize=12;html=1;rounded=0;" edge="1" parent="1" target="1t0jgZ_QZ0gR7xcOCou2-5">
          <mxGeometry width="160" relative="1" as="geometry">
            <mxPoint x="250" y="560" as="sourcePoint" />
            <mxPoint x="430" y="560" as="targetPoint" />
          </mxGeometry>
        </mxCell>
        <mxCell id="nUIhK4x8enayX2qYagXD-12" value="&lt;font style=&quot;font-size: 9px;&quot;&gt;2.3 Створити запис з інформацією про новий договір&lt;/font&gt;" style="text;html=1;strokeColor=none;fillColor=none;align=center;verticalAlign=middle;whiteSpace=wrap;rounded=0;" vertex="1" parent="1">
          <mxGeometry x="250" y="540" width="310" height="20" as="geometry" />
        </mxCell>
        <mxCell id="nUIhK4x8enayX2qYagXD-13" value="" style="endArrow=open;endFill=1;endSize=12;html=1;rounded=0;" edge="1" parent="1">
          <mxGeometry width="160" relative="1" as="geometry">
            <mxPoint x="630" y="560" as="sourcePoint" />
            <mxPoint x="630" y="590" as="targetPoint" />
            <Array as="points">
              <mxPoint x="680" y="560" />
              <mxPoint x="680" y="590" />
            </Array>
          </mxGeometry>
        </mxCell>
        <mxCell id="nUIhK4x8enayX2qYagXD-14" value="&lt;font style=&quot;font-size: 9px;&quot;&gt;2.3.1 Виконати запит на додавання даних&lt;/font&gt;" style="text;html=1;strokeColor=none;fillColor=none;align=center;verticalAlign=middle;whiteSpace=wrap;rounded=0;" vertex="1" parent="1">
          <mxGeometry x="650" y="530" width="100" height="20" as="geometry" />
        </mxCell>
        <mxCell id="nUIhK4x8enayX2qYagXD-15" value="" style="endArrow=open;endFill=1;endSize=12;html=1;rounded=0;" edge="1" parent="1">
          <mxGeometry width="160" relative="1" as="geometry">
            <mxPoint x="620" y="593" as="sourcePoint" />
            <mxPoint x="250" y="593" as="targetPoint" />
            <Array as="points">
              <mxPoint x="460" y="593" />
              <mxPoint x="320" y="593" />
              <mxPoint x="300" y="593" />
            </Array>
          </mxGeometry>
        </mxCell>
        <mxCell id="nUIhK4x8enayX2qYagXD-16" value="&lt;font style=&quot;font-size: 9px;&quot;&gt;2.3.2 Результат виконання запиту&lt;/font&gt;" style="text;html=1;strokeColor=none;fillColor=none;align=center;verticalAlign=middle;whiteSpace=wrap;rounded=0;" vertex="1" parent="1">
          <mxGeometry x="260" y="565" width="191" height="20" as="geometry" />
        </mxCell>
        <mxCell id="nUIhK4x8enayX2qYagXD-17" value="" style="endArrow=open;endFill=1;endSize=12;html=1;rounded=0;" edge="1" parent="1" target="1t0jgZ_QZ0gR7xcOCou2-6">
          <mxGeometry width="160" relative="1" as="geometry">
            <mxPoint x="250" y="625" as="sourcePoint" />
            <mxPoint x="620" y="625" as="targetPoint" />
          </mxGeometry>
        </mxCell>
        <mxCell id="nUIhK4x8enayX2qYagXD-18" value="&lt;font style=&quot;font-size: 9px;&quot;&gt;2.3.2.2 Повернутися до списку договорів&lt;/font&gt;" style="text;html=1;strokeColor=none;fillColor=none;align=center;verticalAlign=middle;whiteSpace=wrap;rounded=0;" vertex="1" parent="1">
          <mxGeometry x="250" y="606" width="180" height="20" as="geometry" />
        </mxCell>
      </root>
    </mxGraphModel>
  </diagram>
</mxfile>
